<svg xmlns="http://www.w3.org/2000/svg" xmlns:xlink="http://www.w3.org/1999/xlink" width="500" zoomAndPan="magnify" viewBox="0 0 375 209.999996" height="280" preserveAspectRatio="xMidYMid meet" version="1.0"><defs><g/></defs><path stroke-linecap="butt" transform="matrix(0.000000001309, -0.75, 0.75, 0.000000001309, 155.049575, 145.335137)" fill="none" stroke-linejoin="miter" d="M -0.00106693 0.501608 L 142.31665 0.501608 " stroke="#000000" stroke-width="1" stroke-opacity="1" stroke-miterlimit="4"/><g fill="#000000" fill-opacity="1"><g transform="translate(92.405571, 137.749932)"><g><path d="M 4.40625 0 L 4.40625 -99.640625 L 24.9375 -99.640625 L 34.109375 -51.96875 L 34.109375 -99.640625 L 53.359375 -99.640625 L 53.359375 0 L 33.875 0 L 23.890625 -49.875 L 23.890625 0 Z M 4.40625 0 "/></g></g></g><g fill="#000000" fill-opacity="1"><g transform="translate(133.011037, 137.749932)"><g/></g></g><g fill="#000000" fill-opacity="1"><g transform="translate(155.425439, 77.564944)"><g><path d="M 12.925781 -35.109375 C 13.765625 -35.109375 14.269531 -35.613281 14.269531 -36.566406 L 14.269531 -37.011719 C 14.269531 -37.40625 14.128906 -37.601562 13.792969 -37.601562 L 7.496094 -37.601562 C 7.078125 -37.601562 6.996094 -37.460938 6.996094 -37.070312 L 6.996094 -0.53125 C 6.996094 -0.0820312 7.078125 0 7.722656 0 L 13.792969 0 C 14.128906 0 14.269531 -0.195312 14.269531 -0.585938 L 14.269531 -1.035156 C 14.269531 -2.015625 13.765625 -2.488281 12.925781 -2.488281 L 9.820312 -2.488281 L 9.820312 -17.375 L 12.503906 -17.375 C 13.371094 -17.375 13.875 -17.847656 13.875 -18.828125 L 13.875 -19.277344 C 13.875 -19.640625 13.707031 -19.863281 13.371094 -19.863281 L 9.820312 -19.863281 L 9.820312 -35.109375 Z M 12.925781 -35.109375 "/></g></g></g><g fill="#000000" fill-opacity="1"><g transform="translate(174.949845, 77.564944)"><g><path d="M 6.9375 -3.441406 C 6.9375 -1.652344 8.195312 0.476562 11.414062 0.476562 C 14.6875 0.476562 15.890625 -1.707031 15.890625 -3.441406 L 15.890625 -34.1875 C 15.890625 -36.171875 14.519531 -38.105469 11.414062 -38.105469 C 8.363281 -38.105469 6.9375 -36.171875 6.9375 -34.1875 Z M 9.765625 -34.132812 C 9.765625 -34.886719 10.183594 -35.585938 11.414062 -35.585938 C 12.617188 -35.585938 13.09375 -34.886719 13.09375 -34.132812 L 13.09375 -3.496094 C 13.09375 -2.714844 12.644531 -2.042969 11.441406 -2.042969 C 10.238281 -2.042969 9.765625 -2.714844 9.765625 -3.496094 Z M 9.765625 -34.132812 "/></g></g></g><g fill="#000000" fill-opacity="1"><g transform="translate(196.432324, 77.564944)"><g><path d="M 7.441406 -13.148438 C 7.105469 -13.148438 6.9375 -13.035156 6.9375 -12.757812 L 6.9375 -3.414062 C 6.9375 -1.175781 8.617188 0.476562 11.414062 0.476562 C 14.210938 0.476562 15.863281 -1.175781 15.863281 -3.414062 C 15.863281 -16.171875 9.734375 -23.417969 9.734375 -34.132812 C 9.734375 -34.886719 10.210938 -35.585938 11.414062 -35.585938 C 12.589844 -35.585938 13.066406 -34.886719 13.066406 -34.132812 L 13.066406 -25.234375 C 13.066406 -24.535156 13.765625 -24.3125 14.210938 -24.3125 L 15.386719 -24.3125 C 15.695312 -24.3125 15.863281 -24.421875 15.863281 -24.703125 L 15.863281 -34.214844 C 15.863281 -36.453125 14.15625 -38.132812 11.386719 -38.132812 C 8.617188 -38.132812 6.910156 -36.453125 6.910156 -34.214844 C 6.910156 -21.90625 13.066406 -14.996094 13.066406 -3.46875 C 13.066406 -2.714844 12.589844 -2.042969 11.414062 -2.042969 C 10.210938 -2.042969 9.765625 -2.714844 9.765625 -3.46875 L 9.765625 -12.226562 C 9.765625 -12.925781 9.035156 -13.148438 8.617188 -13.148438 Z M 7.441406 -13.148438 "/></g></g></g><g fill="#000000" fill-opacity="1"><g transform="translate(155.425439, 129.314941)"><g/></g></g><g fill="#000000" fill-opacity="1"><g transform="translate(170.893849, 129.314941)"><g/></g></g><g fill="#000000" fill-opacity="1"><g transform="translate(186.362259, 129.314941)"><g/></g></g><g fill="#000000" fill-opacity="1"><g transform="translate(201.830668, 129.314941)"><g/></g></g><g fill="#000000" fill-opacity="1"><g transform="translate(217.300435, 129.314941)"><g><path d="M 6.9375 -3.441406 C 6.9375 -1.652344 8.195312 0.476562 11.414062 0.476562 C 14.6875 0.476562 15.890625 -1.707031 15.890625 -3.441406 L 15.890625 -34.1875 C 15.890625 -36.171875 14.519531 -38.105469 11.414062 -38.105469 C 8.363281 -38.105469 6.9375 -36.171875 6.9375 -34.1875 Z M 9.765625 -34.132812 C 9.765625 -34.886719 10.183594 -35.585938 11.414062 -35.585938 C 12.617188 -35.585938 13.09375 -34.886719 13.09375 -34.132812 L 13.09375 -3.496094 C 13.09375 -2.714844 12.644531 -2.042969 11.441406 -2.042969 C 10.238281 -2.042969 9.765625 -2.714844 9.765625 -3.496094 Z M 9.765625 -34.132812 "/></g></g></g><g fill="#000000" fill-opacity="1"><g transform="translate(238.78291, 129.314941)"><g><path d="M 7.441406 -13.148438 C 7.105469 -13.148438 6.9375 -13.035156 6.9375 -12.757812 L 6.9375 -3.414062 C 6.9375 -1.175781 8.617188 0.476562 11.414062 0.476562 C 14.210938 0.476562 15.863281 -1.175781 15.863281 -3.414062 C 15.863281 -16.171875 9.734375 -23.417969 9.734375 -34.132812 C 9.734375 -34.886719 10.210938 -35.585938 11.414062 -35.585938 C 12.589844 -35.585938 13.066406 -34.886719 13.066406 -34.132812 L 13.066406 -25.234375 C 13.066406 -24.535156 13.765625 -24.3125 14.210938 -24.3125 L 15.386719 -24.3125 C 15.695312 -24.3125 15.863281 -24.421875 15.863281 -24.703125 L 15.863281 -34.214844 C 15.863281 -36.453125 14.15625 -38.132812 11.386719 -38.132812 C 8.617188 -38.132812 6.910156 -36.453125 6.910156 -34.214844 C 6.910156 -21.90625 13.066406 -14.996094 13.066406 -3.46875 C 13.066406 -2.714844 12.589844 -2.042969 11.414062 -2.042969 C 10.210938 -2.042969 9.765625 -2.714844 9.765625 -3.46875 L 9.765625 -12.226562 C 9.765625 -12.925781 9.035156 -13.148438 8.617188 -13.148438 Z M 7.441406 -13.148438 "/></g></g></g><g fill="#000000" fill-opacity="1"><g transform="translate(260.265384, 129.314941)"><g><path d="M 6.460938 -37.601562 C 6.125 -37.601562 5.988281 -37.40625 5.988281 -37.011719 L 5.988281 -36.566406 C 5.988281 -35.585938 6.492188 -35.109375 7.328125 -35.109375 L 9.148438 -35.109375 L 9.148438 -0.671875 C 9.148438 -0.195312 9.371094 0 9.820312 0 L 11.332031 0 C 11.777344 0 11.972656 -0.195312 11.972656 -0.671875 L 11.972656 -35.109375 L 13.707031 -35.109375 C 14.546875 -35.109375 15.050781 -35.585938 15.050781 -36.566406 L 15.050781 -37.011719 C 15.050781 -37.40625 14.910156 -37.601562 14.574219 -37.601562 Z M 6.460938 -37.601562 "/></g></g></g><g fill="#000000" fill-opacity="1"><g transform="translate(156.969222, 187.099935)"><g><path d="M 4.40625 -99.640625 L 30.734375 -99.640625 C 38.703125 -99.640625 44.382812 -97.066406 47.78125 -91.921875 C 51.1875 -86.785156 52.890625 -79.269531 52.890625 -69.375 C 52.890625 -59.46875 51.378906 -52 48.359375 -46.96875 C 45.347656 -41.945312 39.9375 -39.4375 32.125 -39.4375 L 24.015625 -39.4375 L 24.015625 0 L 4.40625 0 Z M 25.171875 -57.421875 C 27.566406 -57.421875 29.320312 -57.863281 30.4375 -58.75 C 31.5625 -59.644531 32.296875 -60.921875 32.640625 -62.578125 C 32.992188 -64.242188 33.171875 -66.625 33.171875 -69.71875 C 33.171875 -73.894531 32.707031 -76.910156 31.78125 -78.765625 C 30.851562 -80.617188 29 -81.546875 26.21875 -81.546875 L 24.015625 -81.546875 L 24.015625 -57.421875 Z M 25.171875 -57.421875 "/></g></g></g></svg>